<?xml version="1.0" encoding="UTF-8"?>
<svg id="Layer_2" xmlns="http://www.w3.org/2000/svg" viewBox="0 0 293.16 213.99">
  <defs>
    <style>
      .cls-1 {
        fill: #eee;
      }

      .cls-1, .cls-2 {
        stroke: #111;
        stroke-miterlimit: 10;
        stroke-width: 2px;
      }

      .cls-3 {
        fill: #bfbfbf;
      }

      .cls-4 {
        fill: #282828;
      }

      .cls-2 {
        fill: none;
      }
    </style>
  </defs>
  <g id="Layer_1-2" data-name="Layer_1">
    <g>
      <path class="cls-1" d="M288.62,46.36c-1.54-1.13-3.42-1.67-5.33-1.67h-75.13l1.93-7c.95-3.45-.52-7.12-3.6-8.96C163.51,3.15,122.49,1,105.69,1,57.89,1,22.3,18.39,4.89,28.73c-3.08,1.83-4.56,5.5-3.6,8.95l46.3,167.53c1.27,4.59,5.45,7.78,10.22,7.78h95.77c4.77,0,8.95-3.19,10.22-7.78l9.93-35.91h50.04c3.15,0,6.05-1.71,7.58-4.45l59.74-107.27c2.04-3.67,1.21-8.51-2.45-11.21ZM275.22,59.89l-53.36,95.83c-.3.53-.85.86-1.46.86h-43.17l27.42-99.17h69.12c1.28,0,2.08,1.37,1.46,2.49Z"/>
      <path class="cls-4" d="M74.59,172.04c6.68,4.18,16.43,7.5,26.7,7.5,15.28,0,24.27-7.98,24.27-19.7,0-10.73-6.27-17.05-21.89-22.9-18.89-6.7-30.6-16.63-30.6-32.82,0-18.01,14.97-31.38,37.51-31.38,11.75,0,20.48,2.73,25.53,5.59l-4.17,12.25c-3.69-2.19-11.43-5.49-21.85-5.49-15.89,0-21.9,9.42-21.9,17.3,0,10.74,7.04,16.04,23.01,22.21,19.63,7.7,29.51,17.12,29.51,34.09s-13.08,33.37-40.49,33.37c-11.19,0-23.39-3.38-29.57-7.55l3.93-12.47Z"/>
      <line class="cls-2" x1="208.16" y1="44.69" x2="204.65" y2="57.41"/>
      <line class="cls-2" x1="177.23" y1="156.58" x2="173.72" y2="169.3"/>
      <path class="cls-4" d="M108.88,5.27S64.8,2.44,9.48,29.61c-8.68,4.86-1.41,6.86-1.41,6.86,0,0,28.54,10.84,54.79,11.12,26.25.27,78.89,0,78.89,0,0,0,27.43-.85,41.96-4.4,11.18-2.73,19.4-5.91,19.4-5.91,0,0,6.93-2.73-.2-7.22S161.42,7.35,108.88,5.27Z"/>
      <path class="cls-3" d="M1.29,37.68s42,19.28,87.14,14.61c-30.68,6.73-70.97.87-70.83,12.72.25,21.39,4.61,40.34,9.08,64.53C21.05,109.19,1.29,37.68,1.29,37.68Z"/>
      <path class="cls-3" d="M28.12,134.78s16.97,56.18,28.38,64.22c11.41,8.04,20.01,13.99,37.22,13.99s-35.96,1.38-39.38-.58-5.89-4.4-6.45-6.25-19.78-71.38-19.78-71.38Z"/>
      <path class="cls-2" d="M288.62,46.36c-1.54-1.13-3.42-1.67-5.33-1.67h-75.13l1.93-7c.95-3.45-.52-7.12-3.6-8.96C163.51,3.15,122.49,1,105.69,1,57.89,1,22.3,18.39,4.89,28.73c-3.08,1.83-4.56,5.5-3.6,8.95l46.3,167.53c1.27,4.59,5.45,7.78,10.22,7.78h95.77c4.77,0,8.95-3.19,10.22-7.78l9.93-35.91h50.04c3.15,0,6.05-1.71,7.58-4.45l59.74-107.27c2.04-3.67,1.21-8.51-2.45-11.21ZM275.22,59.89l-53.36,95.83c-.3.53-.85.86-1.46.86h-43.17l27.42-99.17h69.12c1.28,0,2.08,1.37,1.46,2.49Z"/>
    </g>
  </g>
</svg>